<svg version="1.2" xmlns="http://www.w3.org/2000/svg" viewBox="0 0 800 800" width="800" height="800"><style>.a{fill:#fdfdfd}.b{fill:#020202}.c{fill:#fefefe}</style><path class="a" d="m0 0h800v800h-800z"/><path class="b" d="m208 326h78l13 4 10 7 7 7 6 10 4 11 1 7-1 16-4 11-7 10-9 9-9 5 2 5 14 25 13 22 3-3 73-146 3 1 20 41 22 44 7 13v2h-29l-10-19-11-23h-2l-8 16-12 25-18 35-8 14-2 2h-58l-12-22-10-17-15-26-5-8v-3h18l13-2 7-4 6-8 2-4v-13l-4-8-4-5-7-4-6-1-55-1-7-10-7-13z"/><path class="b" d="m598 325h28l1 1v50h2l2-4 11-14 12-15 10-13 4-4h34l-2 5-7 8-9 12-10 12-12 16-9 11-2 3 7 11 11 16 16 23 11 16 12 17v1h-35l-8-11-16-24-12-16-7-11-1-3h-2v65h-30v-151z"/><path class="b" d="m520 326h28l14 4 14 7 12 9-1 5-8 7-7 7-4-1-5-4-12-6-10-2h-13l-15 4-13 9-8 10-5 10-2 9v15l4 14 7 11 10 9 12 6 10 2h12l11-2 12-6 6-5 4 1 12 12 3 2-1 4-5 5-13 8-12 5-9 2h-26l-12-3-16-8-11-8-8-8-7-10-7-16-3-16v-14l3-15 5-12 7-11 9-10 10-8 11-6 13-5z"/><path class="b" d="m71 325h32l17 1 9 3 9 8 6 9 2 7v122l-5 1-1-1v-80l-1-44-4-8-5-6-8-4-5-1-44-1-4-3v-2z"/><path class="b" d="m81 336h37l7 3 7 6 3 6 1 13v111l-4 1-2-1-1-113-1-11-3-5-6-3-31-1-5-2z"/><path class="b" d="m439 452h28l8 16 4 7v2h-28l-5-8-8-16z"/><path class="c" d="m714 327h7l7 4 3 5 1 9-3 6-5 4-4 2h-8l-8-6-3-7v-6l4-6 5-4z"/><path class="b" d="m94 346l22 1 5 2 3 3 1 7v108h-5l-1-106-2-7-4-1-14-1-4-2z"/><path class="b" d="m179 346h2l-1 4-5 2-16 2-2 2-1 111-5 1-1-2 1-112 2-4 9-3z"/><path class="b" d="m174 325h15l17 1-1 4-2 1-43 1-13 4-4 1-1-5 10-5 4-1z"/><path fill-rule="evenodd" class="b" d="m714 327h7l7 4 3 5 1 9-3 6-5 4-4 2h-8l-8-6-3-7v-6l4-6 5-4zm0 3l-6 4-3 3v8l6 7 7 2 8-5 3-6-1-6-4-5-4-2z"/><path  d="m160.2 468v-12.6h3.6l3.7 7.4 3.6-7.4h3.6v12.6h-2.9l-0.1-8.1-3.2 6.8h-2.1l-3.2-6.8v8.1zm16.9 0v-12.6h9.9v2.6h-6.6v2.4h6v2.6h-6v2.4h6.8v2.6zm12.1 0v-12.6h2.9l6.6 8.8-0.8 0.3v-9.1h3v12.6h-2.9l-6.6-8.8 0.9-0.3v9.1zm14-7.6v-5h2.4v5zm14.7-3.8l-1.3 2.5q-0.6-0.4-1.4-0.7-0.7-0.3-1.4-0.4-0.7-0.2-1.2-0.2-0.6 0-1 0.2-0.3 0.2-0.3 0.7 0 0.5 0.3 0.8 0.4 0.3 1 0.5 0.6 0.2 1.3 0.4 0.7 0.2 1.4 0.4 0.7 0.3 1.3 0.7 0.6 0.5 0.9 1.1 0.4 0.7 0.4 1.7 0 1.3-0.7 2.1-0.7 0.9-1.8 1.3-1.2 0.5-2.6 0.5-1 0-2.1-0.3-1-0.2-2-0.7-0.9-0.4-1.7-1.1l1.3-2.5q0.6 0.6 1.5 1 0.8 0.4 1.6 0.7 0.8 0.2 1.5 0.2 0.7 0 1.1-0.2 0.5-0.3 0.5-0.9 0-0.4-0.4-0.7-0.4-0.3-1-0.5-0.6-0.2-1.3-0.4-0.7-0.2-1.4-0.5-0.7-0.2-1.3-0.6-0.6-0.4-0.9-1.1-0.4-0.6-0.4-1.6 0-1.2 0.6-2 0.7-0.9 1.8-1.4 1.1-0.5 2.6-0.5 1.4 0 2.8 0.4 1.3 0.4 2.3 1.1zm9.5 11.4l-4.2-12.6h3.5l2.9 10.6h-0.7l2.8-10.6h3.2l2.9 10.6h-0.7l2.8-10.6h3.4l-4.3 12.6h-3.4l-2.7-10h0.7l-2.8 10zm17.1 0v-12.6h9.9v2.6h-6.6v2.4h6v2.6h-6v2.4h6.8v2.6zm10.8 0l5.4-12.6h3.4l5.3 12.6h-3.5l-3.6-9.3-3.6 9.3zm3.3-2.3v-2.5h7.3v2.5zm12-10.3h5.7q2.5 0 3.9 1.2 1.3 1.1 1.3 3.2 0 2.2-1.3 3.5-1.4 1.2-3.9 1.2h-2.4v3.5h-3.3zm3.3 6.5h2.4q1 0 1.5-0.5 0.6-0.5 0.6-1.5 0-0.9-0.6-1.4-0.5-0.5-1.5-0.5h-2.4zm4.3 6.1l-2.5-4.7h3.2l3 4.7z"/><path  d="m711.2 334.4h5.7q2.5 0 3.9 1.2 1.3 1.1 1.3 3.2 0 2.2-1.3 3.5-1.4 1.2-3.9 1.2h-2.4v3.5h-3.3zm3.3 6.5h2.4q1 0 1.6-0.5 0.5-0.5 0.5-1.5 0-0.9-0.5-1.4-0.6-0.5-1.6-0.5h-2.4zm4.3 6.1l-2.5-4.7h3.2l3 4.7z"/><path class="b" d="m160 336h35l-2 4-6 2-27 1-8 3-3 1-1-6 4-3z"/><path class="b" d="m136 325l6 1-3 6-4-2v-2h-2v-2z"/></svg>